<?xml version="1.0" encoding="iso-8859-1"?>
<!-- Generator: Adobe Illustrator 18.0.0, SVG Export Plug-In . SVG Version: 6.00 Build 0)  -->
<!DOCTYPE svg PUBLIC "-//W3C//DTD SVG 1.1//EN" "http://www.w3.org/Graphics/SVG/1.1/DTD/svg11.dtd">
<svg version="1.1" id="Capa_1" xmlns="http://www.w3.org/2000/svg" xmlns:xlink="http://www.w3.org/1999/xlink" x="0px" y="0px"
	 viewBox="0 0 426.111 426.111" style="enable-background:new 0 0 426.111 426.111;" xml:space="preserve">
<path d="M425.184,70.923l-28.233-51.43c-0.957-1.744-2.567-3.036-4.478-3.592c-1.909-0.555-3.962-0.33-5.706,0.626L190.771,124.124
	c-8.123-8.055-20.894-10.206-31.42-4.426c-10.525,5.778-15.568,17.707-13.133,28.884l-13.305,7.304l-2.506-2.431
	c-8.531-8.276-21.263-9.993-31.683-4.274l-17.24,9.464c-3.631,1.994-4.958,6.553-2.965,10.184c1.994,3.631,6.553,4.959,10.184,2.965
	l17.24-9.465c4.273-2.345,9.422-1.858,13.158,1.139L93.8,177.358c-9.621,5.281-14.52,15.862-13.074,26.137
	c-4.78,1.562-9.267,4.098-13.114,7.569c-15.313,13.814-36.644,36.884-51.298,68.338c-17.997,38.626-21.121,79.361-9.287,121.072
	c0.666,2.346,2.429,4.221,4.729,5.029c9.593,3.37,19.54,5.005,29.423,5.005c23.593-0.001,46.804-9.325,63.828-26.626
	c9.3-9.453,9.203-24.712-0.216-34.017c-21.956-21.687-21.018-36.828-18.505-43.922c5.756-16.249,13.628-26.181,26.754-35.796
	c5.184,6.548,12.243,11.331,20.425,13.713c3.762,1.096,7.595,1.638,11.407,1.638c6.739,0,13.408-1.696,19.479-5.029
	c12.591-6.912,20.655-20.126,21.045-34.483l0.48-17.641l67.176-36.877c16.117-8.848,29.41-22.31,38.132-38.425l131.035-71.934
	C425.85,79.114,427.177,74.555,425.184,70.923z M387.412,33.286l11.069,20.165l-73.078,40.118l-23.804-13.173L387.412,33.286z
	 M166.57,132.847c1.751-0.961,3.645-1.417,5.515-1.417c4.064,0,8.01,2.157,10.1,5.964c3.052,5.559,1.012,12.563-4.547,15.615
	c-5.557,3.051-12.563,1.013-15.615-4.546C158.972,142.903,161.011,135.898,166.57,132.847z M101.018,190.507l29.403-16.141
	l3.661,3.552c1.457,1.414,3.34,2.117,5.222,2.117c1.957,0,3.913-0.762,5.383-2.278c2.884-2.973,2.813-7.721-0.161-10.605
	l-0.349-0.338l9.26-5.083c5.009,4.967,11.781,7.692,18.71,7.692c4.307,0,8.673-1.051,12.708-3.266
	c6.205-3.406,10.712-9.025,12.691-15.821c1.259-4.322,1.394-8.791,0.453-13.069l88.047-48.335l23.804,13.173l-38.927,21.369
	L125.207,203.47c-5.836,3.203-12.707,3.569-18.85,1.004c-3.46-1.445-7.071-2.309-10.706-2.647
	C94.841,197.414,96.876,192.781,101.018,190.507z M94.249,360.536c3.547,3.504,3.576,9.257,0.065,12.825
	c-19.189,19.503-47.819,26.821-73.902,19.176c-4.913-18.893-6.455-37.551-4.652-55.847l57.001-7.271
	C76.064,338.599,82.612,349.041,94.249,360.536z M170.402,245.577c-0.246,9.053-5.331,17.384-13.27,21.742
	c-5.993,3.292-12.909,4.05-19.474,2.138c-4.717-1.374-8.841-4.013-12.013-7.611c3.438-2.082,7.146-4.227,11.155-6.486l6.395,8.225
	c1.479,1.901,3.69,2.897,5.926,2.897c1.608,0,3.229-0.516,4.598-1.58c3.27-2.542,3.86-7.254,1.317-10.524l-4.96-6.38
	c0.928-0.51,1.856-1.02,2.81-1.543l17.758-9.749L170.402,245.577z M281.166,139.367c-7.062,16.487-19.609,30.32-35.332,38.95
	l-100.168,54.989c-40.966,22.49-61.529,33.778-73.519,67.627c-1.37,3.868-2.303,8.468-2.211,13.724l-51.851,6.615
	c2.46-12.034,6.402-23.892,11.827-35.536c13.591-29.171,33.468-50.652,47.75-63.535c6.194-5.588,15.188-7.113,22.916-3.887
	c10.381,4.336,21.989,3.718,31.85-1.696l145.718-79.994c1.113-0.613,1.969-0.179,2.489,0.293
	C281.152,137.39,281.667,138.197,281.166,139.367z M295.632,133.488c-0.553-1.794-1.418-3.499-2.565-5.056L405.7,66.6l2.727,4.967
	L295.632,133.488z"/>
<g>
</g>
<g>
</g>
<g>
</g>
<g>
</g>
<g>
</g>
<g>
</g>
<g>
</g>
<g>
</g>
<g>
</g>
<g>
</g>
<g>
</g>
<g>
</g>
<g>
</g>
<g>
</g>
<g>
</g>
</svg>
